<mxfile host="Electron" modified="2024-04-12T16:00:23.230Z" agent="Mozilla/5.0 (Windows NT 10.0; Win64; x64) AppleWebKit/537.36 (KHTML, like Gecko) draw.io/24.1.0 Chrome/120.0.6099.109 Electron/28.1.0 Safari/537.36" etag="W4NZ4w_C9RE2Inpamon_" version="24.1.0" type="device">
  <diagram name="PÃ¡gina-1" id="I8zYqkw-5vHI_eOkUeR1">
    <mxGraphModel dx="1345" dy="631" grid="1" gridSize="10" guides="1" tooltips="1" connect="1" arrows="1" fold="1" page="1" pageScale="1" pageWidth="827" pageHeight="1169" math="0" shadow="0">
      <root>
        <mxCell id="0" />
        <mxCell id="1" parent="0" />
        <mxCell id="X0uG4Slw8nSs4PtZSCP_-2" value="PASIENTES" style="whiteSpace=wrap;html=1;" vertex="1" parent="1">
          <mxGeometry x="20" y="130" width="120" height="60" as="geometry" />
        </mxCell>
        <mxCell id="X0uG4Slw8nSs4PtZSCP_-3" value="DOCTORES" style="whiteSpace=wrap;html=1;" vertex="1" parent="1">
          <mxGeometry x="370" y="380" width="120" height="60" as="geometry" />
        </mxCell>
        <mxCell id="X0uG4Slw8nSs4PtZSCP_-4" value="SALAS" style="whiteSpace=wrap;html=1;" vertex="1" parent="1">
          <mxGeometry x="600" y="140" width="120" height="60" as="geometry" />
        </mxCell>
        <mxCell id="X0uG4Slw8nSs4PtZSCP_-5" value="ADMINISTRACION" style="whiteSpace=wrap;html=1;" vertex="1" parent="1">
          <mxGeometry x="620" y="390" width="120" height="60" as="geometry" />
        </mxCell>
        <mxCell id="X0uG4Slw8nSs4PtZSCP_-7" value="CONSULTAS (SITAS)" style="whiteSpace=wrap;html=1;" vertex="1" parent="1">
          <mxGeometry x="20" y="380" width="120" height="60" as="geometry" />
        </mxCell>
        <mxCell id="X0uG4Slw8nSs4PtZSCP_-8" value="NOMBRE" style="ellipse;whiteSpace=wrap;html=1;" vertex="1" parent="1">
          <mxGeometry x="290" y="510" width="80" height="30" as="geometry" />
        </mxCell>
        <mxCell id="X0uG4Slw8nSs4PtZSCP_-9" value="EDICION" style="ellipse;whiteSpace=wrap;html=1;" vertex="1" parent="1">
          <mxGeometry x="-40" y="490" width="80" height="30" as="geometry" />
        </mxCell>
        <mxCell id="X0uG4Slw8nSs4PtZSCP_-10" value="CUNSULTAS" style="ellipse;whiteSpace=wrap;html=1;" vertex="1" parent="1">
          <mxGeometry x="50" y="500" width="80" height="30" as="geometry" />
        </mxCell>
        <mxCell id="X0uG4Slw8nSs4PtZSCP_-11" value="RESERVAR CITA" style="ellipse;whiteSpace=wrap;html=1;" vertex="1" parent="1">
          <mxGeometry x="110" width="100" height="40" as="geometry" />
        </mxCell>
        <mxCell id="X0uG4Slw8nSs4PtZSCP_-13" style="edgeStyle=orthogonalEdgeStyle;rounded=0;orthogonalLoop=1;jettySize=auto;html=1;exitX=0.5;exitY=1;exitDx=0;exitDy=0;" edge="1" parent="1" source="X0uG4Slw8nSs4PtZSCP_-3" target="X0uG4Slw8nSs4PtZSCP_-3">
          <mxGeometry relative="1" as="geometry" />
        </mxCell>
        <mxCell id="X0uG4Slw8nSs4PtZSCP_-14" value="SEDULA" style="ellipse;whiteSpace=wrap;html=1;" vertex="1" parent="1">
          <mxGeometry x="390" y="520" width="80" height="30" as="geometry" />
        </mxCell>
        <mxCell id="X0uG4Slw8nSs4PtZSCP_-16" value="ESPESIALIDAD" style="ellipse;whiteSpace=wrap;html=1;" vertex="1" parent="1">
          <mxGeometry x="470" y="500" width="90" height="40" as="geometry" />
        </mxCell>
        <mxCell id="X0uG4Slw8nSs4PtZSCP_-21" value="EDICION" style="ellipse;whiteSpace=wrap;html=1;" vertex="1" parent="1">
          <mxGeometry x="190" y="50" width="100" height="40" as="geometry" />
        </mxCell>
        <mxCell id="X0uG4Slw8nSs4PtZSCP_-23" value="REGISTRO" style="ellipse;whiteSpace=wrap;html=1;" vertex="1" parent="1">
          <mxGeometry y="10" width="80" height="30" as="geometry" />
        </mxCell>
        <mxCell id="X0uG4Slw8nSs4PtZSCP_-25" value="" style="endArrow=none;html=1;rounded=0;exitX=0.5;exitY=0;exitDx=0;exitDy=0;entryX=0.5;entryY=1;entryDx=0;entryDy=0;" edge="1" parent="1" source="X0uG4Slw8nSs4PtZSCP_-2" target="X0uG4Slw8nSs4PtZSCP_-23">
          <mxGeometry width="50" height="50" relative="1" as="geometry">
            <mxPoint x="60" y="100" as="sourcePoint" />
            <mxPoint x="110" y="50" as="targetPoint" />
            <Array as="points" />
          </mxGeometry>
        </mxCell>
        <mxCell id="X0uG4Slw8nSs4PtZSCP_-27" value="" style="endArrow=none;html=1;rounded=0;exitX=0.25;exitY=0;exitDx=0;exitDy=0;entryX=0.5;entryY=1;entryDx=0;entryDy=0;" edge="1" parent="1" target="X0uG4Slw8nSs4PtZSCP_-11">
          <mxGeometry width="50" height="50" relative="1" as="geometry">
            <mxPoint x="110" y="130" as="sourcePoint" />
            <mxPoint x="130" y="46" as="targetPoint" />
            <Array as="points" />
          </mxGeometry>
        </mxCell>
        <mxCell id="X0uG4Slw8nSs4PtZSCP_-28" value="" style="endArrow=none;html=1;rounded=0;exitX=1;exitY=0;exitDx=0;exitDy=0;entryX=0.5;entryY=1;entryDx=0;entryDy=0;" edge="1" parent="1" source="X0uG4Slw8nSs4PtZSCP_-2" target="X0uG4Slw8nSs4PtZSCP_-21">
          <mxGeometry width="50" height="50" relative="1" as="geometry">
            <mxPoint x="140" y="130" as="sourcePoint" />
            <mxPoint x="160" y="46" as="targetPoint" />
            <Array as="points" />
          </mxGeometry>
        </mxCell>
        <mxCell id="X0uG4Slw8nSs4PtZSCP_-32" value="" style="endArrow=none;html=1;rounded=0;exitX=0.5;exitY=0;exitDx=0;exitDy=0;entryX=0.25;entryY=1;entryDx=0;entryDy=0;" edge="1" parent="1" source="X0uG4Slw8nSs4PtZSCP_-8" target="X0uG4Slw8nSs4PtZSCP_-3">
          <mxGeometry width="50" height="50" relative="1" as="geometry">
            <mxPoint x="300" y="500" as="sourcePoint" />
            <mxPoint x="390" y="460" as="targetPoint" />
            <Array as="points" />
          </mxGeometry>
        </mxCell>
        <mxCell id="X0uG4Slw8nSs4PtZSCP_-33" value="" style="endArrow=none;html=1;rounded=0;exitX=0.25;exitY=0;exitDx=0;exitDy=0;entryX=0.5;entryY=1;entryDx=0;entryDy=0;" edge="1" parent="1" target="X0uG4Slw8nSs4PtZSCP_-3">
          <mxGeometry width="50" height="50" relative="1" as="geometry">
            <mxPoint x="430" y="520" as="sourcePoint" />
            <mxPoint x="520" y="480" as="targetPoint" />
            <Array as="points" />
          </mxGeometry>
        </mxCell>
        <mxCell id="X0uG4Slw8nSs4PtZSCP_-34" value="" style="endArrow=none;html=1;rounded=0;exitX=0.25;exitY=0;exitDx=0;exitDy=0;entryX=0.75;entryY=1;entryDx=0;entryDy=0;" edge="1" parent="1" target="X0uG4Slw8nSs4PtZSCP_-3">
          <mxGeometry width="50" height="50" relative="1" as="geometry">
            <mxPoint x="510" y="500" as="sourcePoint" />
            <mxPoint x="470" y="450" as="targetPoint" />
            <Array as="points" />
          </mxGeometry>
        </mxCell>
        <mxCell id="X0uG4Slw8nSs4PtZSCP_-36" value="TIENE" style="rhombus;whiteSpace=wrap;html=1;" vertex="1" parent="1">
          <mxGeometry x="40" y="260" width="80" height="60" as="geometry" />
        </mxCell>
        <mxCell id="X0uG4Slw8nSs4PtZSCP_-37" value="REGISTRADAS POR&amp;nbsp;" style="rhombus;whiteSpace=wrap;html=1;" vertex="1" parent="1">
          <mxGeometry x="180" y="385" width="140" height="50" as="geometry" />
        </mxCell>
        <mxCell id="X0uG4Slw8nSs4PtZSCP_-38" value="TIENE" style="rhombus;whiteSpace=wrap;html=1;" vertex="1" parent="1">
          <mxGeometry x="620" y="270" width="80" height="40" as="geometry" />
        </mxCell>
        <mxCell id="X0uG4Slw8nSs4PtZSCP_-39" value="EDICION&amp;nbsp;" style="ellipse;whiteSpace=wrap;html=1;" vertex="1" parent="1">
          <mxGeometry x="530" y="30" width="80" height="40" as="geometry" />
        </mxCell>
        <mxCell id="X0uG4Slw8nSs4PtZSCP_-40" value="CONSULTAS" style="ellipse;whiteSpace=wrap;html=1;" vertex="1" parent="1">
          <mxGeometry x="620" y="30" width="100" height="40" as="geometry" />
        </mxCell>
        <mxCell id="X0uG4Slw8nSs4PtZSCP_-41" value="" style="endArrow=none;html=1;rounded=0;exitX=0.25;exitY=0;exitDx=0;exitDy=0;entryX=0.5;entryY=1;entryDx=0;entryDy=0;" edge="1" parent="1" target="X0uG4Slw8nSs4PtZSCP_-39">
          <mxGeometry width="50" height="50" relative="1" as="geometry">
            <mxPoint x="620" y="140" as="sourcePoint" />
            <mxPoint x="710" y="100" as="targetPoint" />
            <Array as="points" />
          </mxGeometry>
        </mxCell>
        <mxCell id="X0uG4Slw8nSs4PtZSCP_-43" value="" style="endArrow=none;html=1;rounded=0;exitX=0.25;exitY=0;exitDx=0;exitDy=0;entryX=0.5;entryY=1;entryDx=0;entryDy=0;" edge="1" parent="1" target="X0uG4Slw8nSs4PtZSCP_-40">
          <mxGeometry width="50" height="50" relative="1" as="geometry">
            <mxPoint x="660" y="140" as="sourcePoint" />
            <mxPoint x="630" y="100" as="targetPoint" />
            <Array as="points" />
          </mxGeometry>
        </mxCell>
        <mxCell id="X0uG4Slw8nSs4PtZSCP_-44" value="REGUISTROS" style="ellipse;whiteSpace=wrap;html=1;" vertex="1" parent="1">
          <mxGeometry x="727" y="30" width="100" height="40" as="geometry" />
        </mxCell>
        <mxCell id="X0uG4Slw8nSs4PtZSCP_-45" value="" style="endArrow=none;html=1;rounded=0;exitX=0.25;exitY=0;exitDx=0;exitDy=0;entryX=0.5;entryY=1;entryDx=0;entryDy=0;" edge="1" parent="1" target="X0uG4Slw8nSs4PtZSCP_-44">
          <mxGeometry width="50" height="50" relative="1" as="geometry">
            <mxPoint x="690" y="140" as="sourcePoint" />
            <mxPoint x="740" y="60" as="targetPoint" />
            <Array as="points" />
          </mxGeometry>
        </mxCell>
        <mxCell id="X0uG4Slw8nSs4PtZSCP_-46" value="REGUSITRO" style="ellipse;whiteSpace=wrap;html=1;" vertex="1" parent="1">
          <mxGeometry x="570" y="535" width="100" height="40" as="geometry" />
        </mxCell>
        <mxCell id="X0uG4Slw8nSs4PtZSCP_-47" value="CONSILTA" style="ellipse;whiteSpace=wrap;html=1;" vertex="1" parent="1">
          <mxGeometry x="700" y="530" width="90" height="40" as="geometry" />
        </mxCell>
        <mxCell id="X0uG4Slw8nSs4PtZSCP_-48" value="BAJA DE DATOS" style="ellipse;whiteSpace=wrap;html=1;" vertex="1" parent="1">
          <mxGeometry x="800" y="480" width="130" height="40" as="geometry" />
        </mxCell>
        <mxCell id="X0uG4Slw8nSs4PtZSCP_-49" value="" style="endArrow=none;html=1;rounded=0;exitX=0.5;exitY=0;exitDx=0;exitDy=0;entryX=0.5;entryY=1;entryDx=0;entryDy=0;" edge="1" parent="1" source="X0uG4Slw8nSs4PtZSCP_-46">
          <mxGeometry width="50" height="50" relative="1" as="geometry">
            <mxPoint x="650" y="530" as="sourcePoint" />
            <mxPoint x="650" y="450" as="targetPoint" />
            <Array as="points" />
          </mxGeometry>
        </mxCell>
        <mxCell id="X0uG4Slw8nSs4PtZSCP_-51" value="" style="endArrow=none;html=1;rounded=0;exitX=0.5;exitY=0;exitDx=0;exitDy=0;" edge="1" parent="1" source="X0uG4Slw8nSs4PtZSCP_-47">
          <mxGeometry width="50" height="50" relative="1" as="geometry">
            <mxPoint x="655" y="525" as="sourcePoint" />
            <mxPoint x="685" y="450" as="targetPoint" />
            <Array as="points" />
          </mxGeometry>
        </mxCell>
        <mxCell id="X0uG4Slw8nSs4PtZSCP_-52" value="" style="endArrow=none;html=1;rounded=0;exitX=0.5;exitY=0;exitDx=0;exitDy=0;entryX=1;entryY=0.5;entryDx=0;entryDy=0;" edge="1" parent="1" source="X0uG4Slw8nSs4PtZSCP_-48" target="X0uG4Slw8nSs4PtZSCP_-5">
          <mxGeometry width="50" height="50" relative="1" as="geometry">
            <mxPoint x="800" y="490" as="sourcePoint" />
            <mxPoint x="770" y="440" as="targetPoint" />
            <Array as="points" />
          </mxGeometry>
        </mxCell>
        <mxCell id="X0uG4Slw8nSs4PtZSCP_-53" value="" style="endArrow=none;html=1;rounded=0;entryX=0.5;entryY=1;entryDx=0;entryDy=0;exitX=0.5;exitY=0;exitDx=0;exitDy=0;" edge="1" parent="1" source="X0uG4Slw8nSs4PtZSCP_-36" target="X0uG4Slw8nSs4PtZSCP_-2">
          <mxGeometry width="50" height="50" relative="1" as="geometry">
            <mxPoint x="80" y="260" as="sourcePoint" />
            <mxPoint x="110" y="200" as="targetPoint" />
            <Array as="points" />
          </mxGeometry>
        </mxCell>
        <mxCell id="X0uG4Slw8nSs4PtZSCP_-54" value="" style="endArrow=none;html=1;rounded=0;exitX=0.5;exitY=0;exitDx=0;exitDy=0;entryX=0.5;entryY=1;entryDx=0;entryDy=0;" edge="1" parent="1" source="X0uG4Slw8nSs4PtZSCP_-7" target="X0uG4Slw8nSs4PtZSCP_-36">
          <mxGeometry width="50" height="50" relative="1" as="geometry">
            <mxPoint x="40" y="380" as="sourcePoint" />
            <mxPoint x="80" y="320" as="targetPoint" />
            <Array as="points" />
          </mxGeometry>
        </mxCell>
        <mxCell id="X0uG4Slw8nSs4PtZSCP_-55" value="" style="endArrow=none;html=1;rounded=0;exitX=1;exitY=0.5;exitDx=0;exitDy=0;entryX=0;entryY=0.5;entryDx=0;entryDy=0;" edge="1" parent="1" source="X0uG4Slw8nSs4PtZSCP_-7">
          <mxGeometry width="50" height="50" relative="1" as="geometry">
            <mxPoint x="140" y="420" as="sourcePoint" />
            <mxPoint x="180" y="410" as="targetPoint" />
            <Array as="points" />
          </mxGeometry>
        </mxCell>
        <mxCell id="X0uG4Slw8nSs4PtZSCP_-56" value="" style="endArrow=none;html=1;rounded=0;exitX=1;exitY=0.5;exitDx=0;exitDy=0;entryX=0;entryY=0.5;entryDx=0;entryDy=0;" edge="1" parent="1" source="X0uG4Slw8nSs4PtZSCP_-37" target="X0uG4Slw8nSs4PtZSCP_-3">
          <mxGeometry width="50" height="50" relative="1" as="geometry">
            <mxPoint x="320" y="405" as="sourcePoint" />
            <mxPoint x="360" y="389.69" as="targetPoint" />
            <Array as="points" />
          </mxGeometry>
        </mxCell>
        <mxCell id="X0uG4Slw8nSs4PtZSCP_-57" value="" style="endArrow=none;html=1;rounded=0;exitX=0.5;exitY=0;exitDx=0;exitDy=0;entryX=0.25;entryY=1;entryDx=0;entryDy=0;" edge="1" parent="1" target="X0uG4Slw8nSs4PtZSCP_-7">
          <mxGeometry width="50" height="50" relative="1" as="geometry">
            <mxPoint y="490" as="sourcePoint" />
            <mxPoint x="10" y="430" as="targetPoint" />
            <Array as="points" />
          </mxGeometry>
        </mxCell>
        <mxCell id="X0uG4Slw8nSs4PtZSCP_-58" value="" style="endArrow=none;html=1;rounded=0;exitX=0.5;exitY=0;exitDx=0;exitDy=0;entryX=0.5;entryY=1;entryDx=0;entryDy=0;" edge="1" parent="1" target="X0uG4Slw8nSs4PtZSCP_-7">
          <mxGeometry width="50" height="50" relative="1" as="geometry">
            <mxPoint x="90" y="500" as="sourcePoint" />
            <mxPoint x="140" y="450" as="targetPoint" />
            <Array as="points" />
          </mxGeometry>
        </mxCell>
        <mxCell id="X0uG4Slw8nSs4PtZSCP_-59" value="" style="endArrow=none;html=1;rounded=0;exitX=0.5;exitY=0;exitDx=0;exitDy=0;" edge="1" parent="1" source="X0uG4Slw8nSs4PtZSCP_-38" target="X0uG4Slw8nSs4PtZSCP_-4">
          <mxGeometry width="50" height="50" relative="1" as="geometry">
            <mxPoint x="650" y="270" as="sourcePoint" />
            <mxPoint x="660" y="200" as="targetPoint" />
            <Array as="points" />
          </mxGeometry>
        </mxCell>
        <mxCell id="X0uG4Slw8nSs4PtZSCP_-61" value="HOSPITAL" style="rhombus;whiteSpace=wrap;html=1;" vertex="1" parent="1">
          <mxGeometry x="310" y="260" width="80" height="60" as="geometry" />
        </mxCell>
        <mxCell id="X0uG4Slw8nSs4PtZSCP_-62" value="" style="endArrow=none;html=1;rounded=0;exitX=1;exitY=0.5;exitDx=0;exitDy=0;entryX=0;entryY=0.5;entryDx=0;entryDy=0;" edge="1" parent="1" source="X0uG4Slw8nSs4PtZSCP_-36" target="X0uG4Slw8nSs4PtZSCP_-61">
          <mxGeometry width="50" height="50" relative="1" as="geometry">
            <mxPoint x="120" y="289.6" as="sourcePoint" />
            <mxPoint x="160" y="289.6" as="targetPoint" />
            <Array as="points" />
          </mxGeometry>
        </mxCell>
        <mxCell id="X0uG4Slw8nSs4PtZSCP_-63" value="" style="endArrow=none;html=1;rounded=0;exitX=1;exitY=0.5;exitDx=0;exitDy=0;entryX=0;entryY=0.5;entryDx=0;entryDy=0;" edge="1" parent="1" source="X0uG4Slw8nSs4PtZSCP_-61" target="X0uG4Slw8nSs4PtZSCP_-38">
          <mxGeometry width="50" height="50" relative="1" as="geometry">
            <mxPoint x="390" y="288.89" as="sourcePoint" />
            <mxPoint x="580" y="288.89" as="targetPoint" />
            <Array as="points" />
          </mxGeometry>
        </mxCell>
        <mxCell id="X0uG4Slw8nSs4PtZSCP_-64" value="" style="endArrow=none;html=1;rounded=0;exitX=0.353;exitY=-0.029;exitDx=0;exitDy=0;exitPerimeter=0;" edge="1" parent="1" source="X0uG4Slw8nSs4PtZSCP_-5" target="X0uG4Slw8nSs4PtZSCP_-38">
          <mxGeometry width="50" height="50" relative="1" as="geometry">
            <mxPoint x="659.62" y="380" as="sourcePoint" />
            <mxPoint x="659.62" y="310" as="targetPoint" />
            <Array as="points" />
          </mxGeometry>
        </mxCell>
        <mxCell id="X0uG4Slw8nSs4PtZSCP_-65" value="" style="endArrow=none;html=1;rounded=0;exitX=0;exitY=0.5;exitDx=0;exitDy=0;" edge="1" parent="1" source="X0uG4Slw8nSs4PtZSCP_-5">
          <mxGeometry width="50" height="50" relative="1" as="geometry">
            <mxPoint x="492" y="490" as="sourcePoint" />
            <mxPoint x="490" y="412" as="targetPoint" />
            <Array as="points" />
          </mxGeometry>
        </mxCell>
      </root>
    </mxGraphModel>
  </diagram>
</mxfile>
